<svg width="327" height="100" viewBox="0 0 327 100" fill="none" xmlns="http://www.w3.org/2000/svg">
<path d="M229.307 23.8555H222.322L222.354 76.1049H250.647V69.642H229.339L229.307 23.8555V23.8555Z" fill="#8C929D"/>
<path d="M277.573 66.9379C276.454 68.1049 275.11 69.0316 273.623 69.6616C272.136 70.2917 270.536 70.6121 268.922 70.6034C263.603 70.6034 261.457 67.9668 261.457 64.5264C261.457 59.3497 265.045 56.8739 272.671 56.8739C274.323 56.8803 275.972 57.0093 277.605 57.2597V66.9379H277.573ZM270.332 35.2667C264.902 35.2499 259.639 37.1507 255.465 40.6364L257.932 44.9449C260.784 43.2729 264.276 41.601 269.307 41.601C275.042 41.601 277.573 44.5591 277.573 49.5107V52.0508C275.973 51.7989 274.355 51.67 272.735 51.665C260.495 51.665 254.279 55.9736 254.279 64.9765C254.279 73.0471 259.214 77.0984 266.679 77.0984C271.71 77.0984 276.548 74.7834 278.214 71.0214L279.496 76.1338H284.43V49.3821C284.398 40.9257 280.746 35.2667 270.332 35.2667V35.2667Z" fill="#8C929D"/>
<path d="M306.969 70.8411C304.341 70.8411 302.034 70.5195 300.304 69.7157V45.5684C302.675 43.5749 305.623 42.128 309.372 42.128C316.133 42.128 318.728 46.9189 318.728 54.6679C318.728 65.6644 314.531 70.8411 306.969 70.8411V70.8411ZM309.917 35.2793C308.104 35.2681 306.31 35.6436 304.652 36.3808C302.995 37.118 301.513 38.2003 300.304 39.5557V32.7971L300.272 23.8584H293.447L293.479 74.8217C296.908 76.2686 301.586 77.0403 306.68 77.0403C319.721 77.0403 326.001 68.6804 326.001 54.2434C325.969 42.829 320.17 35.2729 309.917 35.2729" fill="#8C929D"/>
<path d="M153.255 29.525C159.439 29.525 163.444 31.5828 166.04 33.6728L169.051 28.4318C164.982 24.8306 159.471 22.9014 153.576 22.9014C138.708 22.9014 128.295 32.0008 128.295 50.3605C128.295 69.5882 139.541 77.08 152.39 77.08C157.706 77.0923 162.973 76.0657 167.898 74.0576L167.738 53.5115V47.0486H148.66V53.5115H160.836L160.996 69.1059C159.394 69.9098 156.639 70.5529 152.89 70.5529C142.573 70.5529 135.652 64.0257 135.652 50.2961C135.62 36.3094 142.765 29.525 153.242 29.525" fill="#8C929D"/>
<path d="M202.444 23.8496H195.619L195.651 32.6275V62.9482C195.651 71.4046 199.304 77.0636 209.717 77.0636C211.125 77.0673 212.531 76.9381 213.915 76.6778V70.5365C212.865 70.6959 211.804 70.7712 210.743 70.7615C205.007 70.7615 202.476 67.8034 202.476 62.8518V41.952H213.915V36.2287H202.486L202.454 23.8496H202.444Z" fill="#8C929D"/>
<path d="M178.266 76.1047H185.09V36.2344H178.266V76.1047Z" fill="#8C929D"/>
<path d="M178.266 30.7383H185.09V23.8896H178.266V30.7383Z" fill="#8C929D"/>
<path d="M107.968 57.1738L101.909 38.4862L89.9194 1.41961C89.7814 1.00608 89.5174 0.646537 89.1646 0.391797C88.8119 0.137057 88.3883 0 87.9537 0C87.5191 0 87.0955 0.137057 86.7428 0.391797C86.39 0.646537 86.126 1.00608 85.988 1.41961L74.0045 38.4636H34.1644L22.1745 1.41961C22.0365 1.00608 21.7725 0.646537 21.4197 0.391797C21.067 0.137057 20.6434 0 20.2088 0C19.7742 0 19.3506 0.137057 18.9979 0.391797C18.6451 0.646537 18.3811 1.00608 18.2431 1.41961L6.27565 38.4636L0.213438 57.1738C-0.0552387 58.0045 -0.0555275 58.8992 0.212612 59.7301C0.480752 60.561 1.00361 61.2857 1.70656 61.8007L54.0812 99.999L106.456 61.8007C107.162 61.2879 107.688 60.5643 107.96 59.7334C108.232 58.9024 108.234 58.0065 107.968 57.1738" fill="#FC6D26"/>
<path d="M54.0926 99.9622L74.003 38.459H34.1758L54.0926 99.9622Z" fill="#E24329"/>
<path d="M54.0779 99.9654L34.1611 38.459H6.28516L54.0779 99.9654Z" fill="#FC6D26"/>
<path d="M6.26393 38.4834L0.20172 57.171C-0.0669574 58.0017 -0.0672462 58.8964 0.200893 59.7273C0.469033 60.5582 0.991895 61.2829 1.69484 61.7979L54.0695 99.9995L6.26393 38.4834Z" fill="#FCA326"/>
<path d="M6.27148 38.4822H34.1827L22.1704 1.43816C22.0323 1.02463 21.7683 0.665089 21.4156 0.410349C21.0628 0.155609 20.6392 0.0185547 20.2046 0.0185547C19.7701 0.0185547 19.3465 0.155609 18.9937 0.410349C18.641 0.665089 18.3769 1.02463 18.2389 1.43816L6.27148 38.4822Z" fill="#E24329"/>
<path d="M54.0957 99.9654L74.0061 38.459H101.914L54.0957 99.9654Z" fill="#FC6D26"/>
<path d="M101.903 38.4834L107.969 57.171C108.237 58.0017 108.238 58.8964 107.969 59.7273C107.701 60.5582 107.178 61.2829 106.476 61.7979L54.0977 99.9641L101.903 38.4834V38.4834Z" fill="#FCA326"/>
<path d="M101.918 38.4822H74.0039L85.9938 1.43816C86.1318 1.02463 86.3958 0.665089 86.7486 0.410349C87.1013 0.155609 87.5249 0.0185547 87.9595 0.0185547C88.3941 0.0185547 88.8177 0.155609 89.1704 0.410349C89.5232 0.665089 89.7872 1.02463 89.9252 1.43816L101.915 38.4822H101.918Z" fill="#E24329"/>
</svg>
