<svg width="209" height="24" viewBox="0 0 209 24" fill="none" xmlns="http://www.w3.org/2000/svg">
<path d="M5.01529 1.89961C5.23721 1.34363 5.59227 0.926641 6.16925 0.602317H0C0.532597 0.926641 0.887662 1.2973 1.10958 1.76062C1.33149 2.3166 1.46464 3.38224 1.46464 4.9112V18.5792C1.46464 19.9691 1.37588 20.9884 1.19834 21.5907C0.976428 22.1467 0.57698 22.61 0.0443831 22.888H6.21363C5.68104 22.5637 5.32597 22.1931 5.10406 21.7297C4.88214 21.1274 4.74899 20.0618 4.74899 18.5328V4.9112C4.70461 3.52124 4.79337 2.50193 5.01529 1.89961V1.89961ZM26.2748 1.89961C26.5411 2.40927 26.7186 3.28958 26.7186 4.54054V17.8378L14.6908 1.80695C14.247 1.20463 13.9807 0.787645 13.8919 0.555985H9.14292C9.67552 0.926641 10.1193 1.38996 10.3856 1.89961C10.6519 2.40927 10.8295 3.28958 10.8295 4.54054V18.9035C10.8295 20.0618 10.6963 20.8958 10.4744 21.4054C10.1637 22.0077 9.7199 22.5174 9.14292 22.9344H14.9571C14.3801 22.5637 13.9807 22.1004 13.67 21.5907C13.4037 21.0347 13.2262 20.2008 13.2262 18.9498V5.32819L24.5882 20.4324C25.8753 22.1931 27.34 23.3977 29.0709 24V4.54054C29.0709 3.38224 29.2041 2.54826 29.426 2.03861C29.7367 1.43629 30.1805 0.926641 30.7575 0.509653H24.9877C25.5203 0.926641 25.9641 1.38996 26.2748 1.89961V1.89961ZM76.6052 1.89961C76.8271 1.34363 77.2266 0.880309 77.7592 0.602317H71.5899C72.1225 0.880309 72.4776 1.2973 72.6995 1.76062C72.9214 2.36293 73.0546 3.42857 73.0546 4.95753V15.9846C73.0546 16.7259 72.9658 17.3282 72.8327 17.7915C72.5664 18.5328 72.1225 19.1815 71.4124 19.7375C70.3472 20.6178 69.1489 21.0348 67.7286 21.0348C66.5303 21.0348 65.5095 20.7104 64.6218 20.1081C63.6897 19.4595 63.024 18.5792 62.7133 17.4672C62.5358 16.9112 62.447 16.0309 62.447 14.8263V4.9112C62.447 3.52124 62.5358 2.50193 62.7133 1.89961C62.9352 1.34363 63.3347 0.880309 63.8673 0.602317H57.698C58.2306 0.880309 58.5857 1.2973 58.8076 1.76062C59.0295 2.36293 59.1627 3.42857 59.1627 4.95753V14.8263C59.1627 16.4015 59.2514 17.5135 59.3846 18.1622C59.7397 19.7838 60.5385 21.0811 61.7813 22.0077C63.1128 23.027 64.7549 23.5367 66.7522 23.5367C68.5275 23.5367 70.1253 23.0734 71.5456 22.1931C72.1669 21.7761 72.6995 21.2664 73.1877 20.6178V22.9807H77.8036C77.271 22.7027 76.9159 22.2857 76.694 21.8224C76.4721 21.2201 76.3389 20.1544 76.3389 18.6255V4.9112C76.2945 3.52124 76.3833 2.50193 76.6052 1.89961ZM85.7481 1.89961C85.9701 1.34363 86.3251 0.926641 86.9021 0.602317H80.7329C81.2654 0.926641 81.6205 1.2973 81.8424 1.76062C82.0643 2.36293 82.1975 3.42857 82.1975 4.95753V18.6255C82.1975 20.0154 82.1087 21.0348 81.9312 21.6371C81.7093 22.1931 81.3098 22.6564 80.7772 22.9344H86.9465C86.4139 22.61 86.0588 22.2394 85.8369 21.7761C85.615 21.1737 85.4819 20.1081 85.4819 18.5792V4.9112C85.4375 3.52124 85.5262 2.50193 85.7481 1.89961ZM103.546 17.7915C101.726 15.5212 100.261 13.5753 99.1518 12C100.883 11.5367 102.259 10.7027 103.235 9.40541C104.034 8.3861 104.433 7.27413 104.433 6.16216C104.433 5.37452 104.256 4.6332 103.901 3.89189C103.501 3.05792 102.969 2.36293 102.303 1.85328C101.149 0.972973 99.5513 0.555985 97.4653 0.555985C97.1102 0.555985 96.6664 0.555985 96.0894 0.602317C95.1574 0.648649 94.6692 0.648649 94.5804 0.648649H89.8758C90.4084 0.972973 90.7634 1.34363 90.9854 1.80695C91.2073 2.40927 91.3404 3.4749 91.3404 5.00386V18.6718C91.3404 20.0618 91.2516 21.0811 91.0741 21.6834C90.8522 22.2394 90.4528 22.7027 89.9202 22.9807H96.0894C95.5568 22.6564 95.2017 22.2857 94.9798 21.8224C94.7579 21.2201 94.6248 20.1544 94.6248 18.6255V2.91892C95.5124 2.73359 96.2226 2.64093 96.8439 2.64093C97.9979 2.64093 98.9299 2.96525 99.6401 3.6139C100.439 4.35521 100.838 5.23552 100.838 6.39382C100.838 8.98842 99.0187 10.61 95.3793 11.2587C96.2226 12.7413 97.1102 14.1313 97.9979 15.4749C100.306 18.9035 102.081 21.1274 103.324 22.1004C104.123 22.749 105.099 23.027 106.209 23.027C106.697 23.027 107.673 22.9807 109.138 22.8417C107.363 21.9614 105.499 20.2471 103.546 17.7915V17.7915ZM118.814 20.4324C117.482 20.4324 116.151 20.3398 114.819 20.1081V12H117.704C118.458 12 119.035 12.0927 119.479 12.2317C119.79 12.3707 120.056 12.6023 120.278 12.9266V9.31274C119.968 9.45174 119.568 9.5444 119.169 9.5444H114.819V3.19691C115.662 3.05792 116.772 2.96525 118.148 2.96525C119.257 2.96525 120.145 3.05792 120.722 3.28958C121.21 3.4749 121.654 3.79923 122.142 4.26255V0.370656C121.832 0.509653 121.388 0.555985 120.944 0.555985H110.07C110.603 0.833977 110.958 1.20463 111.18 1.71429C111.402 2.3166 111.535 3.38224 111.535 4.9112V18.5328C111.535 19.9228 111.446 20.9421 111.268 21.5444C111.047 22.1004 110.647 22.5637 110.114 22.888H123.651L125.16 18.4402C124.45 19.0425 123.696 19.4595 122.941 19.7375C121.787 20.2008 120.411 20.4324 118.814 20.4324V20.4324ZM187.164 20.4324C185.832 20.4324 184.501 20.3398 183.169 20.1081V12H186.054C186.808 12 187.385 12.0927 187.829 12.2317C188.14 12.3707 188.406 12.6023 188.628 12.9266V9.31274C188.317 9.45174 187.918 9.5444 187.519 9.5444H183.169V3.19691C184.012 3.05792 185.122 2.96525 186.498 2.96525C187.607 2.96525 188.495 3.05792 189.072 3.28958C189.56 3.4749 190.004 3.79923 190.492 4.26255V0.370656C190.182 0.509653 189.738 0.555985 189.294 0.555985H178.464C178.997 0.833977 179.352 1.20463 179.574 1.71429C179.796 2.3166 179.929 3.38224 179.929 4.9112V18.5328C179.929 19.9228 179.84 20.9421 179.663 21.5444C179.441 22.1004 179.041 22.5637 178.509 22.888H192.046L193.555 18.4402C192.845 19.0425 192.09 19.4595 191.336 19.7375C190.137 20.2008 188.761 20.4324 187.164 20.4324V20.4324ZM139.496 17.7915C137.676 15.5212 136.212 13.5753 135.102 12C136.833 11.5367 138.209 10.7027 139.185 9.40541C139.984 8.3861 140.384 7.27413 140.384 6.16216C140.384 5.37452 140.206 4.6332 139.851 3.89189C139.452 3.05792 138.919 2.36293 138.253 1.85328C137.099 0.972973 135.502 0.555985 133.416 0.555985C133.061 0.555985 132.617 0.555985 132.04 0.602317C131.108 0.648649 130.619 0.648649 130.531 0.648649H125.826C126.359 0.972973 126.714 1.34363 126.936 1.80695C127.158 2.40927 127.291 3.4749 127.291 5.00386V18.6718C127.291 20.0618 127.202 21.0811 127.024 21.6834C126.803 22.2394 126.403 22.7027 125.87 22.9807H132.04C131.507 22.6564 131.152 22.2857 130.93 21.8224C130.708 21.2201 130.575 20.1544 130.575 18.6255V2.91892C131.463 2.73359 132.173 2.64093 132.794 2.64093C133.948 2.64093 134.88 2.96525 135.59 3.6139C136.389 4.35521 136.789 5.23552 136.789 6.39382C136.789 8.98842 134.969 10.61 131.33 11.2587C132.173 12.7413 133.061 14.1313 133.948 15.4749C136.256 18.9035 138.031 21.1274 139.274 22.1004C140.073 22.749 141.049 23.027 142.159 23.027C142.647 23.027 143.624 22.9807 145.088 22.8417C143.313 21.9614 141.449 20.2471 139.496 17.7915V17.7915ZM44.0724 21.0348C40.9656 21.0348 38.6577 19.5521 37.1043 16.5869C36.2166 14.9189 35.7728 13.1583 35.7728 11.305C35.7728 9.86873 36.0391 8.5251 36.5717 7.27413C37.193 5.74517 38.1695 4.58687 39.4566 3.7529C40.8325 2.87259 42.3415 2.40927 43.9393 2.40927C46.4247 2.40927 48.4663 3.38224 50.0197 5.37452C51.4844 7.2278 52.2389 9.49807 52.2389 12.0927C52.2389 14.5483 51.5732 16.5869 50.286 18.2085C48.777 20.1081 46.691 21.0348 44.0724 21.0348ZM55.035 20.6178H51.7507C52.5052 19.9691 53.2153 19.1815 53.7923 18.3475C55.2126 16.3089 55.8783 14.0386 55.8783 11.583C55.8783 9.82239 55.4789 8.10811 54.7244 6.44015C53.6592 4.16988 52.0614 2.50193 49.931 1.38996C48.1557 0.46332 46.2916 0 44.2499 0C42.2527 0 40.3442 0.416988 38.6133 1.25097C36.5273 2.27027 34.9739 3.70656 33.8199 5.55985C32.666 7.50579 32.0446 9.59073 32.0446 11.8147C32.0446 13.3436 32.3553 14.8263 32.9323 16.2625C33.6868 18.1158 34.8851 19.6448 36.4829 20.8958C38.6133 22.5637 41.0987 23.3977 43.8949 23.3977C45.6258 23.3977 47.268 23.0734 48.8214 22.3784C48.9989 22.332 49.1321 22.2394 49.2652 22.1467L47.8894 23.9073C48.422 23.722 48.9102 23.583 49.354 23.5367C49.7535 23.4903 50.3748 23.444 51.2181 23.444H55.0794C55.4789 23.444 55.7452 23.3977 55.9227 23.3514C56.1446 23.305 56.4109 23.0734 56.6772 22.749L58.6745 19.9691C58.1862 20.2008 57.698 20.3398 57.2542 20.4324C56.8548 20.6178 56.1002 20.6178 55.035 20.6178V20.6178ZM151.213 21.1274C151.213 21.7297 151.036 22.1931 150.636 22.61C150.237 23.027 149.793 23.2124 149.26 23.2124C148.683 23.2124 148.24 23.027 147.84 22.61C147.441 22.1931 147.263 21.7297 147.263 21.1274C147.263 20.5714 147.441 20.0618 147.84 19.6911C148.24 19.2741 148.683 19.0888 149.26 19.0888C149.793 19.0888 150.237 19.2741 150.592 19.6911C151.036 20.1081 151.213 20.5714 151.213 21.1274V21.1274ZM209 0.370656L207.935 4.40154C207.669 3.84556 207.225 3.42857 206.648 3.28958C206.293 3.19691 205.716 3.15058 204.872 3.15058C204.695 3.15058 204.429 3.15058 204.073 3.19691C203.674 3.24324 203.186 3.24324 202.609 3.24324H202.076V18.9498C202.076 20.0618 202.209 20.8958 202.431 21.4054C202.653 21.9151 203.097 22.4247 203.807 22.9344H197.372C198.082 22.5637 198.526 21.9151 198.703 21.0348C198.792 20.6178 198.836 19.8301 198.836 18.5792V3.19691C198.215 3.15058 197.327 3.10425 196.218 3.10425C195.241 3.10425 194.487 3.15058 193.999 3.28958C193.377 3.4749 192.711 3.84556 192.001 4.40154L193.2 0.370656C193.643 0.509653 194.176 0.602317 194.842 0.602317H207.047C207.313 0.602317 207.713 0.602317 208.29 0.555985C208.423 0.509653 208.645 0.46332 209 0.370656V0.370656ZM171.319 1.89961C171.585 2.40927 171.763 3.28958 171.763 4.54054V17.8378L159.69 1.80695C159.247 1.20463 158.98 0.787645 158.891 0.555985H154.142C154.675 0.926641 155.119 1.38996 155.43 1.89961C155.696 2.40927 155.873 3.28958 155.873 4.54054V18.9035C155.873 20.0618 155.74 20.8958 155.518 21.4054C155.208 22.0077 154.764 22.5174 154.187 22.9344H160.001C159.424 22.5637 159.025 22.1004 158.714 21.5907C158.448 21.0347 158.27 20.2008 158.27 18.9498V5.32819L169.632 20.4324C170.919 22.1931 172.384 23.3977 174.115 24V4.54054C174.115 3.38224 174.248 2.54826 174.47 2.03861C174.781 1.43629 175.224 0.926641 175.801 0.509653H169.987C170.564 0.926641 171.008 1.38996 171.319 1.89961" fill="#0B73B5"/>
</svg>
