<svg width="121" height="131" viewBox="0 0 121 131" fill="none" xmlns="http://www.w3.org/2000/svg">
<g clip-path="url(#clip0)">
<path d="M118.6 71.8002C119.5 71.0002 120 69.9002 120.1 68.6002C120.2 66.0002 118.3 63.9002 115.7 63.7002C114.5 63.6002 113.3 64.1002 112.4 64.8002L28.5997 110.7C26.6997 111.5 24.9997 112.9 23.8997 114.8C20.9997 119.6 22.5997 125.8 27.4997 128.7C30.8997 130.7 34.9997 130.5 38.1997 128.5C38.3997 128.3 38.6997 128.2 38.8997 128L116.9 73.2002C117.3 72.9002 118.4 72.1002 118.6 71.8002Z" fill="url(#paint0_linear)"/>
<path d="M118.8 65.1L54.9996 2.5C53.5996 1 51.5996 0 49.2996 0C44.9996 0 41.5996 3.5 41.5996 7.7C41.5996 9.8 42.3996 11.6 43.6996 13C44.0996 13.4 44.4996 13.7 44.8996 14L112.3 71.7C113.1 72.4 114.1 72.9 115.3 73C117.9 73.1 120 71.2 120.2 68.6C120.2 67.3 119.7 66 118.8 65.1Z" fill="url(#paint1_linear)"/>
<path d="M57.0996 59.4996C56.9996 59.4996 17.6996 28.4996 16.8996 27.9996C16.2996 27.6996 15.6996 27.3996 15.0996 27.0996C9.29962 24.8996 2.89962 27.8996 0.699618 33.6996C-1.20038 38.7996 0.899618 44.3996 5.29962 47.0996C5.99962 47.4996 6.59962 47.7996 7.29962 47.9996C7.69962 48.1996 52.6996 66.7996 52.6996 66.7996C54.4996 67.5996 56.5996 67.0996 57.7996 65.5996C59.2996 63.6996 58.9996 60.9996 57.0996 59.4996Z" fill="url(#paint2_linear)"/>
<path d="M49.2992 0C47.5992 0 45.9992 0.6 44.6992 1.5L4.89921 28.3C4.79921 28.4 4.6992 28.4 4.6992 28.5H4.59921C2.8992 29.7 1.49921 31.5 0.699205 33.6C-1.50079 39.4 1.49921 45.9 7.29921 48C10.8992 49.4 14.7992 48.7 17.6992 46.6C18.3992 46.1 18.9992 45.6 19.4992 45L54.0992 13.8C55.8992 12.4 57.0992 10.2 57.0992 7.7C57.0992 3.5 53.5992 0 49.2992 0Z" fill="url(#paint3_linear)"/>
<path d="M85.5996 37.4004H34.5996V88.4004H85.5996V37.4004Z" fill="black"/>
<path d="M58.1 78.8008H39V82.0008H58.1V78.8008Z" fill="white"/>
<path d="M38.7988 50.8002L40.2988 49.4002C40.6988 49.9002 41.0988 50.2002 41.5988 50.2002C42.1988 50.2002 42.4988 49.8002 42.4988 49.0002V43.7002H44.7988V49.0002C44.7988 50.0002 44.4988 50.8002 43.9988 51.3002C43.4988 51.8002 42.6988 52.1002 41.6988 52.1002C40.1988 52.2002 39.3988 51.6002 38.7988 50.8002Z" fill="white"/>
<path d="M45.2988 43.7998H51.9988V45.6998H47.5988V46.9998H51.5988V48.7998H47.5988V50.0998H52.0988V52.0998H45.3988L45.2988 43.7998Z" fill="white"/>
<path d="M54.998 45.7998H52.498V43.7998H59.798V45.7998H57.298V52.0998H54.998V45.7998Z" fill="white"/>
<path d="M38.998 54H43.298C44.298 54 45.098 54.3 45.598 54.7C45.898 55 46.098 55.5 46.098 56.1C46.098 57.1 45.598 57.6 44.798 58C45.798 58.3 46.398 58.9 46.398 60C46.398 61.4 45.198 62.3 43.298 62.3H38.998V54ZM43.798 56.6C43.798 56.1 43.398 55.9 42.798 55.9H41.298V57.4H42.698C43.398 57.3 43.798 57.1 43.798 56.6ZM42.998 59H41.198V60.5H42.998C43.698 60.5 44.098 60.2 44.098 59.7C44.098 59.2 43.698 59 42.998 59Z" fill="white"/>
<path d="M46.7988 54H50.6988C51.9988 54 52.7988 54.3 53.3988 54.9C53.8988 55.4 54.0988 56 54.0988 56.8C54.0988 58.1 53.3988 58.9 52.3988 59.4L54.3988 62.3H51.7988L50.0988 59.8H49.0988V62.3H46.7988V54ZM50.5988 58C51.3988 58 51.7988 57.6 51.7988 57C51.7988 56.3 51.2988 56 50.5988 56H49.0988V58H50.5988Z" fill="white"/>
<path d="M56.7992 54H58.9992L62.4992 62.4H59.9992L59.3992 60.9H56.1992L55.5992 62.4H53.1992L56.7992 54ZM58.7992 59L57.8992 56.7L56.9992 59H58.7992Z" fill="white"/>
<path d="M62.7988 54H65.0988V62.3H62.7988V54Z" fill="white"/>
<path d="M65.6992 54H67.7992L71.1992 58.4V54H73.4992V62.3H71.4992L67.9992 57.8V62.4H65.6992V54Z" fill="white"/>
<path d="M73.6992 61.1004L74.9992 59.6004C75.7992 60.3004 76.6992 60.6004 77.6992 60.6004C78.2992 60.6004 78.6992 60.4004 78.6992 60.0004C78.6992 59.6004 78.3992 59.5004 77.2992 59.2004C75.4992 58.8004 74.1992 58.3004 74.1992 56.6004C74.1992 55.1004 75.3992 53.9004 77.3992 53.9004C78.7992 53.9004 79.8992 54.3004 80.7992 55.0004L79.5992 56.6004C78.7992 56.1004 77.9992 55.8004 77.2992 55.8004C76.6992 55.8004 76.4992 56.0004 76.4992 56.3004C76.4992 56.7004 76.7992 56.8004 77.8992 57.1004C79.7992 57.5004 80.9992 58.1004 80.9992 59.7004C80.9992 61.4004 79.6992 62.4004 77.5992 62.4004C76.0992 62.5004 74.6992 62.0004 73.6992 61.1004Z" fill="white"/>
</g>
<defs>
<linearGradient id="paint0_linear" x1="31.8409" y1="120.558" x2="110.24" y2="73.2402" gradientUnits="userSpaceOnUse">
<stop stop-color="#FCEE39"/>
<stop offset="1" stop-color="#F37B3D"/>
</linearGradient>
<linearGradient id="paint1_linear" x1="48.3603" y1="6.9083" x2="119.918" y2="69.5546" gradientUnits="userSpaceOnUse">
<stop stop-color="#EF5A6B"/>
<stop offset="0.57" stop-color="#F26F4E"/>
<stop offset="1" stop-color="#F37B3D"/>
</linearGradient>
<linearGradient id="paint2_linear" x1="52.9463" y1="63.6403" x2="10.5375" y2="37.1558" gradientUnits="userSpaceOnUse">
<stop stop-color="#7C59A4"/>
<stop offset="0.3852" stop-color="#AF4C92"/>
<stop offset="0.7654" stop-color="#DC4183"/>
<stop offset="0.957" stop-color="#ED3D7D"/>
</linearGradient>
<linearGradient id="paint3_linear" x1="52.1728" y1="3.7019" x2="10.7698" y2="37.8971" gradientUnits="userSpaceOnUse">
<stop stop-color="#EF5A6B"/>
<stop offset="0.364" stop-color="#EE4E72"/>
<stop offset="1" stop-color="#ED3D7D"/>
</linearGradient>
<clipPath id="clip0">
<rect width="120.1" height="130.2" fill="white"/>
</clipPath>
</defs>
</svg>
