<svg width="377" height="144" viewBox="0 0 377 144" fill="none" xmlns="http://www.w3.org/2000/svg">
<path d="M96.1996 47.1004H78.5996V38.4004H123.8V47.1004H106.2V91.6004H96.0996V47.1004H96.1996ZM133.3 91.6004V62.1004C135 61.1004 137.5 60.6004 140.5 60.6004C142.5 60.6004 144.5 60.8004 146.3 61.3004L148.7 53.4004C146.3 52.5004 143.5 52.2004 140.2 52.2004C132.8 52.2004 126.9 55.1004 124 57.7004V91.7004H133.3V91.6004ZM181.3 53.5004V83.1004C178.9 84.1004 176.4 84.6004 173.3 84.6004C165.5 84.6004 163.9 81.1004 163.9 74.7004V53.5004H154.5V77.5004C154.5 86.9004 159.9 92.9004 172.1 92.9004C180.7 92.9004 186.7 90.7004 190.6 88.8004V53.5004H181.3ZM198.4 86.9004C198.4 86.9004 203.8 92.6004 213.4 92.6004C222.6 92.6004 228.2 87.4004 228.2 81.0004C228.2 68.5004 209.4 69.2004 209.4 63.7004C209.4 61.3004 211.8 60.2004 214.3 60.2004C220.2 60.2004 223.8 63.5004 223.8 63.5004L227.4 56.4004C227.4 56.4004 223.1 52.0004 214.4 52.0004C206 52.0004 199.6 56.2004 199.6 63.4004C199.6 75.9004 218.4 75.1004 218.4 80.9004C218.4 83.2004 216 84.4004 213.3 84.4004C207 84.4004 202.7 80.1004 202.7 80.1004L198.4 86.9004ZM236.3 77.4004C236.3 90.4004 247 92.0004 252.4 92.0004C254.2 92.0004 255.4 91.8004 255.4 91.8004V83.4004C255.4 83.4004 254.7 83.5004 253.7 83.5004C251 83.5004 246 82.6004 246 76.2004V61.7004H254.8V53.5004H246V42.3004H236.6L236.3 77.4004ZM322.6 91.6004V62.1004C324.3 61.1004 326.8 60.6004 329.8 60.6004C331.8 60.6004 333.8 60.8004 335.6 61.3004L338 53.4004C335.6 52.5004 332.8 52.2004 329.5 52.2004C322.1 52.2004 316.2 55.1004 313.3 57.7004V91.7004H322.6V91.6004ZM359.8 52.7004C347.3 52.7004 339.3 61.7004 339.3 72.5004C339.3 83.5004 347.3 92.3004 359.8 92.3004C369.9 92.3004 375.3 86.2004 375.3 86.2004L371.7 79.5004C371.7 79.5004 367 84.3004 360.6 84.3004C353.4 84.3004 348.8 78.8004 348.8 72.4004C348.8 66.0004 353.3 60.7004 360.3 60.7004C366.2 60.7004 370.1 64.8004 370.1 64.8004L374.2 58.4004C374.3 58.3004 369.6 52.7004 359.8 52.7004ZM293.2 77.8004H275.5L270.7 91.3004H260.8L279.3 38.7004H289.1L307.6 91.3004H297.8L293.2 77.8004ZM290.4 70.0004L284.3 52.7004L278.3 70.0004H290.4Z" fill="#004676"/>
<path d="M39.1996 43.9006C55.9996 25.8006 81.2996 20.4006 103.2 28.0006C87.0996 17.8006 65.9996 16.8006 48.5996 27.3006C30.7996 38.0006 21.6996 57.6006 23.4996 77.0006C25.1996 65.0006 30.3996 53.4006 39.1996 43.9006Z" fill="#5FC323"/>
<path d="M15.4998 4.1004C20.3998 3.9004 24.3998 6.30039 24.5998 9.30039C24.5998 9.30039 25.1998 12.3004 20.0998 16.5004C18.7998 17.7004 17.3998 19.0004 16.1998 20.3004C-5.60023 43.6004 -4.30023 80.2004 18.9998 102C19.0998 102.1 19.1998 102.1 19.2998 102.2C12.3998 92.8004 8.19977 81.3004 7.69977 68.8004C6.49977 35.6004 32.4998 7.8004 65.5998 6.7004C73.6998 6.4004 81.3998 7.7004 88.4998 10.4004C75.3998 2.4004 59.8998 0.100395 45.3998 3.40039C41.6998 4.00039 37.8998 2.90039 36.3998 2.40039C29.7998 -0.199605 22.0998 0.200396 15.4998 4.1004Z" fill="#5FC323"/>
<path d="M107.801 113.2H114.601C115.801 113.2 116.901 113.3 118.001 113.5C119.001 113.7 119.901 114.1 120.601 114.6C121.301 115.1 121.901 115.8 122.301 116.6C122.701 117.4 122.901 118.5 122.901 119.7C122.901 120.9 122.701 121.9 122.301 122.8C121.901 123.7 121.301 124.4 120.601 124.9C119.901 125.5 119.001 125.9 118.001 126.2C117.001 126.5 115.901 126.6 114.701 126.6H110.701V135.4H107.901V113.2H107.801ZM114.301 124.4C116.201 124.4 117.701 124 118.601 123.3C119.501 122.6 120.001 121.4 120.001 119.8C120.001 118.2 119.501 117.1 118.601 116.5C117.701 115.9 116.201 115.6 114.301 115.6H110.601V124.5H114.301V124.4Z" fill="#004676"/>
<path d="M126.602 119H128.902L129.102 122H129.202C129.802 121 130.502 120.1 131.302 119.5C132.102 118.9 133.002 118.6 133.902 118.6C134.602 118.6 135.102 118.7 135.702 118.9L135.202 121.3C134.902 121.2 134.702 121.1 134.502 121.1C134.302 121.1 134.002 121 133.602 121C132.902 121 132.202 121.3 131.402 121.8C130.602 122.4 130.002 123.4 129.402 124.8V135.4H126.602V119Z" fill="#004676"/>
<path d="M139.301 115.6C138.801 115.6 138.301 115.4 137.901 115.1C137.501 114.8 137.301 114.3 137.301 113.8C137.301 113.3 137.501 112.8 137.901 112.5C138.301 112.2 138.701 112 139.301 112C139.901 112 140.301 112.2 140.701 112.5C141.101 112.8 141.301 113.3 141.301 113.8C141.301 114.3 141.101 114.8 140.701 115.1C140.301 115.4 139.901 115.6 139.301 115.6ZM137.901 119H140.701V135.5H137.901V119Z" fill="#004676"/>
<path d="M143.4 119H146.3L149.4 128.4C149.6 129.2 149.9 130 150.2 130.8C150.5 131.6 150.7 132.4 151 133.2H151.1C151.3 132.4 151.6 131.6 151.8 130.8C152 130 152.3 129.2 152.5 128.4L155.6 119H158.4L152.6 135.5H149.3L143.4 119Z" fill="#004676"/>
<path d="M159.602 131.3C159.602 129.5 160.402 128.1 162.002 127.1C163.602 126.1 166.202 125.5 169.702 125.1C169.702 124.6 169.602 124.1 169.502 123.6C169.402 123.1 169.202 122.7 169.002 122.3C168.702 121.9 168.402 121.6 168.002 121.4C167.602 121.2 167.002 121 166.302 121C165.302 121 164.402 121.2 163.602 121.5C162.802 121.9 162.002 122.3 161.402 122.7L160.302 120.8C161.102 120.3 162.002 119.8 163.102 119.4C164.202 118.9 165.402 118.7 166.802 118.7C168.802 118.7 170.302 119.3 171.202 120.6C172.102 121.8 172.602 123.5 172.602 125.5V135.6H170.302L170.102 133.6H170.002C169.202 134.3 168.402 134.8 167.402 135.3C166.502 135.8 165.502 136 164.502 136C163.102 136 161.902 135.6 161.002 134.8C160.102 133.9 159.602 132.8 159.602 131.3ZM162.402 131.1C162.402 132.1 162.702 132.7 163.202 133.1C163.802 133.5 164.402 133.7 165.302 133.7C166.102 133.7 166.802 133.5 167.602 133.1C168.402 132.7 169.102 132.2 169.902 131.5V126.9C168.502 127.1 167.302 127.3 166.402 127.5C165.402 127.7 164.702 128 164.102 128.4C163.502 128.7 163.102 129.1 162.902 129.6C162.502 130 162.402 130.5 162.402 131.1Z" fill="#004676"/>
<path d="M176.102 127.3C176.102 125.9 176.302 124.7 176.702 123.6C177.102 122.5 177.702 121.6 178.402 120.9C179.102 120.2 180.002 119.6 180.902 119.2C181.902 118.8 182.902 118.6 183.902 118.6C185.002 118.6 185.902 118.8 186.702 119.2C187.502 119.6 188.202 120.1 188.702 120.6L187.302 122.4C186.802 122 186.302 121.6 185.802 121.3C185.302 121 184.702 120.9 184.002 120.9C183.302 120.9 182.602 121.1 181.902 121.4C181.202 121.7 180.702 122.1 180.302 122.7C179.802 123.3 179.502 123.9 179.202 124.7C178.902 125.5 178.802 126.3 178.802 127.3C178.802 128.3 178.902 129.1 179.202 129.9C179.402 130.7 179.802 131.3 180.202 131.9C180.602 132.5 181.202 132.9 181.802 133.2C182.402 133.5 183.102 133.7 183.902 133.7C184.702 133.7 185.402 133.5 186.102 133.2C186.702 132.9 187.302 132.5 187.802 132L189.102 133.8C188.402 134.5 187.502 135 186.602 135.4C185.702 135.8 184.702 136 183.702 136C182.602 136 181.602 135.8 180.602 135.4C179.602 135 178.802 134.5 178.102 133.7C177.402 132.9 176.902 132.1 176.502 131C176.302 129.9 176.102 128.7 176.102 127.3Z" fill="#004676"/>
<path d="M192.002 140.2C192.202 140.3 192.402 140.3 192.602 140.3C193.602 140.3 194.302 140 194.902 139.3C195.502 138.6 196.002 137.8 196.302 136.8L196.702 135.6L190.102 119H193.002L196.402 128.1C196.602 128.8 196.902 129.6 197.202 130.4C197.502 131.2 197.702 132 198.002 132.8H198.102C198.302 132.1 198.602 131.3 198.802 130.5C199.002 129.7 199.302 128.9 199.502 128.2L202.502 119.1H205.202L199.002 137C198.702 137.8 198.402 138.6 198.002 139.3C197.602 140 197.202 140.6 196.702 141.1C196.202 141.6 195.602 142 195.002 142.3C194.402 142.6 193.602 142.7 192.802 142.7C192.402 142.7 192.102 142.7 191.702 142.6C191.402 142.5 191.102 142.5 190.802 142.3L191.302 140.1C191.602 140.1 191.802 140.2 192.002 140.2Z" fill="#004676"/>
<path d="M213.201 124.399C213.201 122.599 213.401 120.999 213.901 119.599C214.401 118.199 215.101 116.999 216.001 115.999C216.901 114.999 217.901 114.199 219.101 113.699C220.301 113.199 221.601 112.899 223.101 112.899C224.501 112.899 225.601 113.199 226.701 113.699C227.701 114.299 228.601 114.899 229.201 115.599L227.601 117.399C227.001 116.799 226.401 116.299 225.601 115.899C224.901 115.499 224.101 115.299 223.101 115.299C222.001 115.299 221.101 115.499 220.201 115.899C219.301 116.299 218.601 116.899 218.001 117.699C217.401 118.499 216.901 119.399 216.601 120.499C216.301 121.599 216.101 122.899 216.101 124.199C216.101 125.599 216.301 126.899 216.601 127.999C216.901 129.099 217.401 130.099 218.001 130.899C218.601 131.699 219.301 132.299 220.201 132.699C221.101 133.099 222.001 133.299 223.101 133.299C224.201 133.299 225.101 133.099 225.901 132.699C226.701 132.299 227.501 131.699 228.201 130.899L229.801 132.599C228.901 133.599 227.901 134.399 226.801 134.999C225.701 135.599 224.401 135.899 223.001 135.899C221.601 135.899 220.301 135.599 219.101 135.099C217.901 134.599 216.901 133.799 216.001 132.799C215.101 131.799 214.401 130.599 214.001 129.199C213.501 127.799 213.201 126.199 213.201 124.399Z" fill="#004676"/>
<path d="M231.9 127.3C231.9 125.9 232.1 124.7 232.5 123.6C232.9 122.5 233.5 121.6 234.2 120.9C234.9 120.2 235.7 119.6 236.6 119.2C237.5 118.8 238.5 118.6 239.5 118.6C240.5 118.6 241.5 118.8 242.4 119.2C243.3 119.6 244.1 120.2 244.8 120.9C245.5 121.6 246.1 122.6 246.5 123.6C246.9 124.7 247.1 125.9 247.1 127.3C247.1 128.7 246.9 129.9 246.5 131C246.1 132.1 245.5 133 244.8 133.7C244.1 134.4 243.3 135 242.4 135.4C241.5 135.8 240.5 136 239.5 136C238.5 136 237.5 135.8 236.6 135.4C235.7 135 234.9 134.5 234.2 133.7C233.5 133 232.9 132.1 232.5 131C232.1 129.9 231.9 128.7 231.9 127.3ZM234.8 127.3C234.8 128.3 234.9 129.1 235.1 129.9C235.3 130.7 235.6 131.3 236.1 131.9C236.5 132.5 237 132.9 237.6 133.2C238.2 133.5 238.8 133.7 239.5 133.7C240.2 133.7 240.8 133.5 241.4 133.2C242 132.9 242.5 132.5 242.9 131.9C243.3 131.3 243.6 130.7 243.9 129.9C244.2 129.1 244.2 128.3 244.2 127.3C244.2 126.3 244.1 125.5 243.9 124.7C243.7 123.9 243.4 123.2 242.9 122.7C242.5 122.1 242 121.7 241.4 121.4C240.8 121.1 240.2 120.9 239.5 120.9C238.8 120.9 238.2 121.1 237.6 121.4C237 121.7 236.5 122.1 236.1 122.7C235.7 123.3 235.4 123.9 235.1 124.7C234.8 125.5 234.8 126.4 234.8 127.3Z" fill="#004676"/>
<path d="M251.102 119H253.402L253.602 121.4H253.702C254.402 120.6 255.202 119.9 256.102 119.4C257.002 118.9 257.902 118.6 258.902 118.6C260.202 118.6 261.202 118.9 261.902 119.4C262.602 119.9 263.102 120.7 263.502 121.7C264.402 120.7 265.202 120 266.102 119.4C267.002 118.8 267.902 118.5 268.902 118.5C270.602 118.5 271.902 119 272.702 120.1C273.502 121.2 273.902 122.8 273.902 124.9V135.4H271.102V125.3C271.102 123.7 270.902 122.6 270.402 121.9C269.902 121.2 269.102 120.9 268.102 120.9C266.902 120.9 265.502 121.7 264.002 123.4V135.4H261.202V125.3C261.202 123.7 261.002 122.6 260.502 121.9C260.002 121.2 259.202 120.9 258.202 120.9C257.002 120.9 255.602 121.7 254.102 123.4V135.4H251.302V119H251.102Z" fill="#004676"/>
<path d="M281.501 136.9V142.5H278.701V119H281.001L281.201 120.9H281.301C282.001 120.3 282.901 119.7 283.801 119.3C284.701 118.8 285.601 118.6 286.601 118.6C287.701 118.6 288.601 118.8 289.401 119.2C290.201 119.6 290.901 120.2 291.401 120.9C291.901 121.6 292.401 122.5 292.601 123.6C292.901 124.6 293.001 125.8 293.001 127.1C293.001 128.5 292.801 129.8 292.401 130.9C292.001 132 291.501 132.9 290.801 133.7C290.101 134.5 289.401 135.1 288.501 135.5C287.601 135.9 286.701 136.1 285.801 136.1C285.001 136.1 284.301 135.9 283.501 135.6C282.701 135.3 282.001 134.8 281.201 134.2L281.501 136.9ZM281.501 131.9C282.201 132.5 283.001 133 283.701 133.2C284.401 133.5 285.001 133.6 285.601 133.6C286.301 133.6 286.901 133.4 287.501 133.1C288.101 132.8 288.601 132.4 289.001 131.8C289.401 131.2 289.701 130.6 290.001 129.7C290.201 128.9 290.401 128 290.401 126.9C290.401 126 290.301 125.2 290.201 124.4C290.001 123.7 289.801 123 289.401 122.5C289.001 122 288.601 121.6 288.001 121.3C287.401 121 286.801 120.9 286.001 120.9C285.301 120.9 284.601 121.1 283.901 121.5C283.201 121.9 282.401 122.4 281.601 123.2V131.9H281.501Z" fill="#004676"/>
<path d="M297.102 111.3H299.902V132.4C299.902 132.9 300.002 133.2 300.102 133.4C300.302 133.6 300.402 133.7 300.602 133.7C300.702 133.7 300.802 133.7 300.902 133.7C301.002 133.7 301.102 133.7 301.302 133.6L301.702 135.7C301.502 135.8 301.302 135.9 301.102 135.9C300.902 135.9 300.502 136 300.102 136C299.002 136 298.302 135.7 297.802 135C297.302 134.4 297.102 133.4 297.102 132.2V111.3V111.3Z" fill="#004676"/>
<path d="M306.701 115.6C306.201 115.6 305.701 115.4 305.301 115.1C304.901 114.8 304.701 114.3 304.701 113.8C304.701 113.3 304.901 112.8 305.301 112.5C305.701 112.2 306.101 112 306.701 112C307.301 112 307.701 112.2 308.101 112.5C308.501 112.8 308.701 113.3 308.701 113.8C308.701 114.3 308.501 114.8 308.101 115.1C307.701 115.4 307.201 115.6 306.701 115.6ZM305.301 119H308.101V135.5H305.301V119Z" fill="#004676"/>
<path d="M312.301 131.3C312.301 129.5 313.101 128.1 314.701 127.1C316.301 126.1 318.901 125.5 322.401 125.1C322.401 124.6 322.301 124.1 322.201 123.6C322.101 123.1 321.901 122.7 321.701 122.3C321.401 121.9 321.101 121.6 320.701 121.4C320.301 121.2 319.701 121 319.001 121C318.001 121 317.101 121.2 316.301 121.5C315.501 121.9 314.701 122.3 314.101 122.7L313.001 120.8C313.801 120.3 314.701 119.8 315.801 119.4C316.901 118.9 318.101 118.7 319.501 118.7C321.501 118.7 323.001 119.3 323.901 120.6C324.801 121.8 325.301 123.5 325.301 125.5V135.6H323.001L322.801 133.6H322.701C321.901 134.3 321.101 134.8 320.101 135.3C319.201 135.8 318.201 136 317.201 136C315.801 136 314.601 135.6 313.701 134.8C312.801 133.9 312.301 132.8 312.301 131.3ZM315.101 131.1C315.101 132.1 315.401 132.7 315.901 133.1C316.401 133.5 317.101 133.7 318.001 133.7C318.801 133.7 319.501 133.5 320.301 133.1C321.101 132.7 321.801 132.2 322.601 131.5V126.9C321.201 127.1 320.101 127.3 319.101 127.5C318.101 127.7 317.401 128 316.801 128.4C316.201 128.7 315.801 129.1 315.601 129.6C315.201 130 315.101 130.5 315.101 131.1Z" fill="#004676"/>
<path d="M330 119H332.3L332.5 121.4H332.6C333.4 120.6 334.2 119.9 335.1 119.4C336 118.9 337 118.6 338.1 118.6C339.8 118.6 341.1 119.1 341.9 120.2C342.7 121.3 343.1 122.9 343.1 125V135.5H340.3V125.4C340.3 123.8 340.1 122.7 339.6 122C339.1 121.3 338.3 121 337.2 121C336.3 121 335.6 121.2 334.9 121.6C334.2 122 333.5 122.7 332.7 123.5V135.5H330V119Z" fill="#004676"/>
<path d="M346.9 127.3C346.9 125.9 347.1 124.7 347.5 123.6C347.9 122.5 348.5 121.6 349.2 120.9C349.9 120.2 350.8 119.6 351.7 119.2C352.7 118.8 353.7 118.6 354.7 118.6C355.8 118.6 356.7 118.8 357.5 119.2C358.3 119.6 359 120.1 359.5 120.6L358.1 122.4C357.6 122 357.1 121.6 356.6 121.3C356.1 121 355.5 120.9 354.8 120.9C354.1 120.9 353.4 121.1 352.7 121.4C352 121.7 351.5 122.1 351.1 122.7C350.6 123.3 350.3 123.9 350 124.7C349.7 125.5 349.6 126.3 349.6 127.3C349.6 128.3 349.7 129.1 350 129.9C350.2 130.7 350.6 131.3 351 131.9C351.4 132.5 352 132.9 352.6 133.2C353.2 133.5 353.9 133.7 354.7 133.7C355.5 133.7 356.2 133.5 356.9 133.2C357.5 132.9 358.1 132.5 358.6 132L359.9 133.8C359.2 134.5 358.3 135 357.4 135.4C356.5 135.8 355.5 136 354.5 136C353.4 136 352.4 135.8 351.4 135.4C350.4 135 349.6 134.5 348.9 133.7C348.2 132.9 347.7 132.1 347.3 131C347.1 129.9 346.9 128.7 346.9 127.3Z" fill="#004676"/>
<path d="M361.201 127.3C361.201 125.9 361.401 124.7 361.801 123.6C362.201 122.5 362.801 121.6 363.501 120.9C364.201 120.2 365.001 119.6 365.901 119.2C366.801 118.8 367.701 118.6 368.701 118.6C369.701 118.6 370.701 118.8 371.501 119.1C372.301 119.5 373.001 120 373.601 120.7C374.201 121.4 374.601 122.2 374.901 123.1C375.201 124.1 375.301 125.1 375.301 126.3C375.301 126.9 375.301 127.4 375.201 127.8H364.001C364.101 129.6 364.701 131 365.601 132C366.601 133 367.901 133.6 369.501 133.6C370.301 133.6 371.001 133.5 371.701 133.2C372.401 133 373.001 132.7 373.601 132.3L374.601 134.1C373.901 134.6 373.101 134.9 372.201 135.3C371.301 135.6 370.301 135.8 369.201 135.8C368.101 135.8 367.101 135.6 366.101 135.2C365.101 134.8 364.301 134.2 363.601 133.5C362.901 132.8 362.301 131.9 361.901 130.8C361.501 129.7 361.201 128.7 361.201 127.3ZM372.701 126.1C372.701 124.4 372.301 123.1 371.601 122.2C370.901 121.3 369.901 120.9 368.601 120.9C368.001 120.9 367.401 121 366.901 121.3C366.401 121.5 365.901 121.9 365.501 122.3C365.101 122.7 364.701 123.3 364.401 123.9C364.101 124.5 363.901 125.3 363.801 126.1H372.701V126.1Z" fill="#004676"/>
</svg>
