<svg width="897" height="120" viewBox="0 0 897 120" fill="none" xmlns="http://www.w3.org/2000/svg">
<path fill-rule="evenodd" clip-rule="evenodd" d="M181.576 119.725H236.133V0.441002H181.576V119.725Z" fill="#FDE293"/>
<path fill-rule="evenodd" clip-rule="evenodd" d="M265.67 0.440002L335.176 119.725V0.440002H265.67Z" fill="#AECBFA"/>
<path fill-rule="evenodd" clip-rule="evenodd" d="M404.683 0.440002H335.175V119.725L404.683 0.440002Z" fill="#4285F4"/>
<path fill-rule="evenodd" clip-rule="evenodd" d="M48.795 0.440002C82.04 0.440002 108.989 27.144 108.989 60.083C108.989 93.023 82.039 119.725 48.795 119.725V0.440002Z" fill="#34A853"/>
<path fill-rule="evenodd" clip-rule="evenodd" d="M726.1 89.904C701.168 89.904 680.955 69.877 680.955 45.173C680.955 20.467 701.168 0.440002 726.1 0.440002V89.904Z" fill="#FBBC04"/>
<path fill-rule="evenodd" clip-rule="evenodd" d="M481.863 30.262H522V0.440002H481.863V30.262Z" fill="#EA4335"/>
<path fill-rule="evenodd" clip-rule="evenodd" d="M786.538 30.262H817.214V0.440002H786.538V30.262ZM866.01 30.262H896.685V0.440002H866.009L866.01 30.262Z" fill="#4285F4"/>
<path fill-rule="evenodd" clip-rule="evenodd" d="M481.863 89.905H511.962V60.084H481.863V89.905Z" fill="#EA4335"/>
<path fill-rule="evenodd" clip-rule="evenodd" d="M726.099 30.262H766.229V0.440002H726.1L726.099 30.262Z" fill="#FBBC04"/>
<path fill-rule="evenodd" clip-rule="evenodd" d="M726.1 30.261V89.904H685.97V119.725H726.1C751.033 119.725 771.246 99.698 771.246 74.994C771.246 50.288 751.033 30.261 726.1 30.261" fill="#FDE293"/>
<path fill-rule="evenodd" clip-rule="evenodd" d="M593.75 119.725V0.441002C569.974 0.441002 550.7 19.538 550.7 43.096V77.07C550.7 100.629 569.974 119.725 593.75 119.725Z" fill="#34A853"/>
<path fill-rule="evenodd" clip-rule="evenodd" d="M593.75 119.725H648.306V0.441002H593.75V119.725Z" fill="#A8DAB5"/>
<path fill-rule="evenodd" clip-rule="evenodd" d="M433.068 119.725H481.863V0.441002H433.068V119.725Z" fill="#FAD2CF"/>
<path fill-rule="evenodd" clip-rule="evenodd" d="M817.212 119.725H866.009V0.441002H817.212V119.725Z" fill="#AECBFA"/>
<path fill-rule="evenodd" clip-rule="evenodd" d="M0 119.725H48.796V0.441002H0V119.725Z" fill="#A8DAB5"/>
<mask id="mask0" mask-type="alpha" maskUnits="userSpaceOnUse" x="138" y="0" width="44" height="120">
<path d="M138.526 0.441002H181.576V119.726H138.526V0.441002Z" fill="white"/>
</mask>
<g mask="url(#mask0)">
<path fill-rule="evenodd" clip-rule="evenodd" d="M181.576 119.726V0.440002C157.802 0.441002 138.526 19.539 138.526 43.096V77.07C138.526 100.629 157.801 119.725 181.576 119.725" fill="#FBBC04"/>
</g>
<path d="M802.875 13.351H882.346" stroke="#174EA6" stroke-width="1.724"/>
<path d="M581.321 40.068L573.551 40.016" stroke="#0D652D" stroke-width="1.724"/>
<path d="M649.306 40.142H595.864" stroke="#FDE293" stroke-width="1.724"/>
<path d="M618.794 76.024H606.662M649.306 76.024H633.349H649.306Z" stroke="#0D652D" stroke-width="1.724"/>
<path d="M313.236 29.456L332.394 62.332M343.827 68.825C343.827 64.639 340.402 61.244 336.175 61.244C331.951 61.244 328.525 64.639 328.525 68.824C328.525 73.011 331.951 76.406 336.175 76.406C340.402 76.406 343.827 73.011 343.827 68.825V68.825ZM355.291 22.89C355.291 18.705 358.715 15.31 362.943 15.31C367.167 15.31 370.591 18.705 370.591 22.89C370.591 27.078 367.167 30.472 362.943 30.472C358.715 30.472 355.291 27.078 355.291 22.891V22.89ZM359.116 29.456L339.959 62.332L359.116 29.456ZM317.062 22.89C317.062 18.705 313.637 15.31 309.411 15.31C305.184 15.31 301.761 18.705 301.761 22.89C301.761 27.078 305.184 30.472 309.411 30.472C313.637 30.472 317.061 27.078 317.061 22.891L317.062 22.89Z" stroke="#174EA6" stroke-width="1.724"/>
<path fill-rule="evenodd" clip-rule="evenodd" d="M25.397 66.732L16.67 58.084L25.398 49.434L34.128 58.084L25.397 66.732Z" stroke="#0D652D" stroke-width="1.724"/>
<path d="M49.795 94.95C70.345 94.95 87.005 78.445 87.005 58.083C87.005 37.723 70.345 21.216 49.795 21.216H25.398V49.433" stroke="#0D652D" stroke-width="1.724"/>
<path fill-rule="evenodd" clip-rule="evenodd" d="M633.35 76.024L626.071 68.814L618.794 76.024L626.071 83.235L633.35 76.024ZM596.02 40.142L588.742 32.931L581.464 40.141L588.742 47.353L596.02 40.142Z" stroke="#0D652D" stroke-width="1.724"/>
<path fill-rule="evenodd" clip-rule="evenodd" d="M835.333 38.865C835.333 34.882 838.591 31.655 842.611 31.655C846.631 31.655 849.889 34.882 849.889 38.865C849.889 42.847 846.631 46.075 842.611 46.075C838.591 46.075 835.333 42.847 835.333 38.865V38.865ZM835.333 66.506C835.333 62.524 838.591 59.296 842.611 59.296C846.631 59.296 849.889 62.524 849.889 66.506C849.889 70.489 846.631 73.717 842.611 73.717C838.591 73.717 835.333 70.489 835.333 66.507V66.506ZM835.333 94.148C835.333 90.166 838.591 86.938 842.611 86.938C846.631 86.938 849.889 90.166 849.889 94.148C849.889 98.131 846.631 101.359 842.611 101.359C838.591 101.359 835.333 98.131 835.333 94.149V94.148Z" stroke="#174EA6" stroke-width="1.724"/>
<path d="M712.87 102.814H727.1C743.723 102.814 757.198 89.463 757.198 72.994C757.198 56.524 743.723 43.173 727.1 43.173" stroke="#E37400" stroke-width="1.724"/>
<path d="M489.473 72.89H458.466V103.613" stroke="#A50E0E" stroke-width="1.724"/>
<path d="M502.867 13.34H458.467V58.084" stroke="#FBBC04" stroke-width="1.718"/>
<path d="M237.134 76.024H182.359M237.134 40.142H182.359H237.134ZM237.134 58.083H182.359H237.134Z" stroke="#E37400" stroke-width="1.724"/>
<path d="M706.052 64.487C700.468 59.074 697.002 51.524 697.002 43.172C697.002 26.703 710.479 13.35 727.101 13.35H747.165" stroke="#E37400" stroke-width="1.724"/>
</svg>
