<?xml version="1.0" encoding="UTF-8"?>
<!DOCTYPE svg PUBLIC "-//W3C//DTD SVG 1.1//EN" "http://www.w3.org/Graphics/SVG/1.1/DTD/svg11.dtd">
<svg xmlns="http://www.w3.org/2000/svg" xmlns:xlink="http://www.w3.org/1999/xlink" version="1.1"  width="202" height="146" viewBox="0 0 202 146">
   <defs>
        <path id="a" d="M.158.39H107.28v106.92H.158z"></path>
        <path id="c" d="M.105.557h38.004v144.574H.105z"></path>
    </defs>
    <g fill="none" fill-rule="evenodd">
        <path fill="#D3E3F9" d="M0 123.16h51.714V19.926H0z"></path>
        <g transform="translate(94.034 17.693)">
            <mask id="b" fill="#fff">
                <use href="#a"></use>
            </mask>
            <path d="M53.72.39C24.138.39.157 24.325.157 53.85c0 29.525 23.98 53.46 53.561 53.46 29.582 0 53.562-23.935 53.562-53.46C107.28 24.326 83.3.39 53.719.39m0 5.214c26.653 0 48.338 21.643 48.338 48.247 0 26.601-21.685 48.245-48.338 48.245-26.652 0-48.337-21.644-48.337-48.245 0-26.604 21.685-48.247 48.337-48.247" fill="#4285F4" mask="url(#b)"></path>
        </g>
        <g transform="translate(58.336 .312)">
            <mask id="d" fill="#fff">
                <use href="#c"></use>
            </mask>
            <path fill="#5BB974" mask="url(#d)" d="M5.625 145.131l-5.52-1.247L32.588.557l5.52 1.246z"></path>
        </g>
    </g>
</svg>
