<svg width="24" height="24" viewBox="0 0 24 24" fill="none" xmlns="http://www.w3.org/2000/svg">
<path d="M21.9833 18.6593C21.7254 17.0935 18.7553 18.2942 18.5722 16.5824C18.3143 14.1487 22.0249 8.90802 21.7337 6.84745C21.7087 6.53374 21.6198 6.22804 21.4722 5.9482C21.3247 5.66837 21.1215 5.42 20.8744 5.21759C20.6273 5.01519 20.3414 4.86282 20.0332 4.76936C19.7251 4.67591 19.401 4.64325 19.0797 4.67329C18.4859 4.59482 17.8827 4.72107 17.3742 5.03024C17.3131 5.09009 17.2405 5.13759 17.1606 5.16999C17.0806 5.2024 16.9949 5.21908 16.9083 5.21908C16.8217 5.21908 16.736 5.2024 16.656 5.16999C16.5761 5.13759 16.5035 5.09009 16.4424 5.03024C16.205 4.79575 15.9551 4.5737 15.6936 4.36502C15.4557 4.17836 15.166 4.06535 14.8617 4.04052C14.4627 3.9697 14.0521 3.99194 13.6636 4.10542C13.3545 4.26317 13.0735 4.46864 12.8316 4.71386C12.5571 4.94101 11.8749 5.68736 11.2343 5.41153C10.9597 5.28984 10.0279 4.83554 9.34569 4.55161C8.04782 3.99996 6.16757 4.89233 5.49367 6.06865C4.47867 7.81283 2.49858 14.6679 2.16579 15.5684C2.00496 16.0004 1.96017 16.4653 2.03568 16.919C2.11119 17.3726 2.30449 17.7999 2.59719 18.1601C2.88989 18.5203 3.27225 18.8015 3.70788 18.9769C4.14352 19.1523 4.61794 19.2161 5.086 19.1622C5.51803 19.1601 5.93959 19.0324 6.29677 18.7954C6.65394 18.5584 6.9305 18.2229 7.09105 17.8318C7.41552 17.272 10.4189 9.64626 10.6269 9.2812C10.745 9.09712 10.9241 8.95806 11.1346 8.8872C11.345 8.81634 11.574 8.81796 11.7834 8.8918C11.9816 9.00626 12.136 9.18076 12.2231 9.38873C12.3102 9.59669 12.3253 9.82672 12.2659 10.0438C12.1578 10.7739 10.0445 15.4224 9.96135 15.9497C9.82823 16.842 10.2609 17.3369 11.2176 17.3856C11.6053 17.4072 11.9899 17.308 12.316 17.1023C12.642 16.8967 12.8925 16.5953 13.0313 16.2417C13.3225 15.7144 16.6504 9.20818 16.9416 8.77822C17.2328 8.34826 17.5323 8.14545 17.8651 8.16167C18.1979 8.1779 18.5306 8.2428 18.4308 8.97292C18.331 9.70305 15.6437 14.4732 15.3692 15.6414C15.2042 16.4013 15.3066 17.1932 15.6598 17.8893C16.013 18.5855 16.5965 19.1454 17.316 19.4786C18.2478 19.9329 22.2911 20.6874 21.9833 18.6593Z" fill="white"/>
</svg>
