<svg width="24" height="24" viewBox="0 0 24 24" fill="none" xmlns="http://www.w3.org/2000/svg">
<path d="M22 6C21.2639 6.35 20.4704 6.58 19.6482 6.69C20.4895 6.16 21.1396 5.32 21.4455 4.31C20.652 4.81 19.7725 5.16 18.8451 5.36C18.0899 4.5 17.0287 4 15.8241 4C13.5774 4 11.7419 5.92 11.7419 8.29C11.7419 8.63 11.7801 8.96 11.847 9.27C8.4436 9.09 5.413 7.38 3.39579 4.79C3.04207 5.42 2.8413 6.16 2.8413 6.94C2.8413 8.43 3.55832 9.75 4.6673 10.5C3.98853 10.5 3.35755 10.3 2.80306 10C2.80306 10 2.80306 10 2.80306 10.03C2.80306 12.11 4.21797 13.85 6.09178 14.24C5.74761 14.34 5.38432 14.39 5.01147 14.39C4.75335 14.39 4.49522 14.36 4.24665 14.31C4.76291 16 6.26386 17.26 8.07075 17.29C6.67495 18.45 4.90631 19.13 2.97514 19.13C2.6501 19.13 2.32505 19.11 2 19.07C3.81644 20.29 5.97706 21 8.29063 21C15.8241 21 19.9637 14.46 19.9637 8.79C19.9637 8.6 19.9637 8.42 19.9541 8.23C20.7572 7.63 21.4455 6.87 22 6Z" fill="white"/>
</svg>
